<svg xmlns="http://www.w3.org/2000/svg" viewBox="0 0 110.94 33.18"><defs><style>.cls-1{fill:#231f20;}</style></defs><g id="Layer_2" data-name="Layer 2"><g id="Layer_1-2" data-name="Layer 1"><path class="cls-1" d="M1.58,6.91a11.14,11.14,0,0,1,4.28-4.2A11.94,11.94,0,0,1,11.79,1.2,12,12,0,0,1,18.35,3a10.31,10.31,0,0,1,4.17,5.13H18a6.14,6.14,0,0,0-2.49-2.73,7.52,7.52,0,0,0-3.69-.89,8,8,0,0,0-4.09,1,7.12,7.12,0,0,0-2.8,3,9.46,9.46,0,0,0-1,4.48,9.47,9.47,0,0,0,1,4.49,7.3,7.3,0,0,0,2.8,3,8,8,0,0,0,4.09,1,7.42,7.42,0,0,0,3.69-.9A6.17,6.17,0,0,0,18,17.87h4.55A10.27,10.27,0,0,1,18.35,23a12.1,12.1,0,0,1-6.56,1.79,11.94,11.94,0,0,1-5.95-1.51,11.16,11.16,0,0,1-4.26-4.2A11.8,11.8,0,0,1,0,13,11.79,11.79,0,0,1,1.58,6.91Z"/><path class="cls-1" d="M43.41,6.28,32.18,33.18H28.26L32,24.28l-7.21-18H29l5.15,13.94L39.49,6.28Z"/><path class="cls-1" d="M52.69,6.82A8.18,8.18,0,0,1,56.42,6a8.5,8.5,0,0,1,4.39,1.16,8.35,8.35,0,0,1,3.09,3.3A10.41,10.41,0,0,1,65,15.34a10.56,10.56,0,0,1-1.12,4.93,8.5,8.5,0,0,1-3.11,3.39,8.71,8.71,0,0,1-8.14.38,7.24,7.24,0,0,1-2.6-2.12v2.66H46.26V0h3.79V9A7.17,7.17,0,0,1,52.69,6.82Zm7.7,5.25A5.38,5.38,0,0,0,58.33,10a5.46,5.46,0,0,0-2.74-.71,5.43,5.43,0,0,0-4.76,2.85,6.64,6.64,0,0,0-.78,3.29,6.71,6.71,0,0,0,.78,3.3,5.39,5.39,0,0,0,4.76,2.88,5.3,5.3,0,0,0,2.74-.75,5.5,5.5,0,0,0,2.06-2.18,6.82,6.82,0,0,0,.78-3.32A6.54,6.54,0,0,0,60.39,12.07Z"/><path class="cls-1" d="M72,23.7a8.56,8.56,0,0,1-3.29-3.33,10.06,10.06,0,0,1-1.19-5,9.83,9.83,0,0,1,1.23-4.95,8.49,8.49,0,0,1,3.35-3.32,10.31,10.31,0,0,1,9.5,0A8.49,8.49,0,0,1,85,10.46a9.83,9.83,0,0,1,1.23,4.95A9.64,9.64,0,0,1,85,20.36a8.76,8.76,0,0,1-3.44,3.34,10,10,0,0,1-4.8,1.17A9.45,9.45,0,0,1,72,23.7Zm7.43-2.81a5.33,5.33,0,0,0,2.07-2.09,6.75,6.75,0,0,0,.8-3.39A6.85,6.85,0,0,0,81.56,12a5.19,5.19,0,0,0-2-2.08,5.59,5.59,0,0,0-2.73-.69,5.48,5.48,0,0,0-2.7.69,5,5,0,0,0-2,2.08,7.08,7.08,0,0,0-.73,3.37A6.43,6.43,0,0,0,72.91,20a5,5,0,0,0,3.8,1.61A5.74,5.74,0,0,0,79.46,20.89Z"/><path class="cls-1" d="M97.8,15.31l5.91,9.27H99.43l-4-6.22-3.72,6.22h-4l5.91-9-5.91-9.3h4.28l4,6.21,3.72-6.21h3.95Z"/><polygon class="cls-1" points="107.43 3.51 84.02 3.51 88.54 0 110.94 0 107.43 3.51"/><polygon class="cls-1" points="110.94 22.4 110.94 0 107.43 3.51 107.43 26.92 110.94 22.4"/></g></g></svg>