<svg width="111" height="34" viewBox="0 0 111 34" fill="none" xmlns="http://www.w3.org/2000/svg">
<g clip-path="url(#clip0_404_2)">
<path d="M1.58009 6.91005C2.59606 5.14517 4.07636 3.69254 5.86009 2.71005C7.67203 1.70015 9.71582 1.17972 11.7901 1.20005C14.1046 1.15474 16.3828 1.77986 18.3501 3.00005C20.2655 4.20596 21.7309 6.00868 22.5201 8.13005H18.0001C17.4701 6.98597 16.6007 6.0328 15.5101 5.40005C14.3764 4.79273 13.106 4.4863 11.8201 4.51005C10.3919 4.4722 8.97968 4.8175 7.73009 5.51005C6.52256 6.21359 5.54877 7.25693 4.93009 8.51005C4.23402 9.89864 3.89057 11.4373 3.93009 12.9901C3.88933 14.5462 4.2328 16.0883 4.93009 17.4801C5.55737 18.7272 6.5291 19.7684 7.73009 20.4801C8.97968 21.1726 10.3919 21.5179 11.8201 21.4801C13.1073 21.5053 14.379 21.1951 15.5101 20.5801C16.5964 19.9511 17.4651 19.0057 18.0001 17.8701H22.5501C21.7557 19.9974 20.2787 21.8014 18.3501 23.0001C16.3795 24.2115 14.1029 24.8327 11.7901 24.7901C9.70905 24.8139 7.65793 24.2933 5.84009 23.2801C4.06433 22.2938 2.59141 20.8416 1.58009 19.0801C0.513724 17.2334 -0.0322931 15.1323 9.16413e-05 13.0001C-0.0346094 10.8644 0.511503 8.75946 1.58009 6.91005V6.91005Z" fill="white"/>
<path d="M43.41 6.28003L32.18 33.18H28.26L32 24.28L24.79 6.28003H29L34.15 20.22L39.49 6.28003H43.41Z" fill="white"/>
<path d="M52.69 6.82C53.8512 6.25619 55.1294 5.9752 56.42 6C57.9615 5.98143 59.4789 6.3824 60.81 7.16C62.1239 7.95494 63.1931 9.09679 63.9 10.46C64.6579 11.9731 65.0354 13.6481 65 15.34C65.0314 17.0498 64.647 18.7416 63.88 20.27C63.1747 21.6644 62.0986 22.8374 60.77 23.66C59.547 24.3822 58.166 24.7944 56.7472 24.8606C55.3284 24.9269 53.915 24.6451 52.63 24.04C51.6093 23.5466 50.7187 22.8205 50.03 21.92V24.58H46.26V0H50.05V9C50.7411 8.07081 51.6469 7.32282 52.69 6.82V6.82ZM60.39 12.07C59.9073 11.2033 59.1944 10.4869 58.33 10C57.495 9.52659 56.5499 9.2817 55.59 9.29C54.6137 9.29322 53.6562 9.55964 52.8186 10.0612C51.9809 10.5628 51.2939 11.2809 50.83 12.14C50.2905 13.151 50.0218 14.2844 50.05 15.43C50.0232 16.5786 50.2918 17.7149 50.83 18.73C51.2865 19.5975 51.971 20.3241 52.8097 20.8316C53.6484 21.3391 54.6097 21.6082 55.59 21.61C56.5546 21.614 57.5019 21.3547 58.33 20.86C59.2054 20.3382 59.9186 19.5835 60.39 18.68C60.927 17.6572 61.1954 16.5149 61.17 15.36C61.2029 14.2139 60.9339 13.0793 60.39 12.07V12.07Z" fill="white"/>
<path d="M72.0002 23.7001C70.6154 22.9173 69.4761 21.7642 68.7102 20.3701C67.8872 18.8346 67.4772 17.1117 67.5201 15.3701C67.4875 13.6406 67.9118 11.9331 68.7502 10.4201C69.5308 9.01922 70.6923 7.86813 72.1002 7.10007C73.5676 6.33832 75.1968 5.94067 76.8502 5.94067C78.5035 5.94067 80.1327 6.33832 81.6002 7.10007C83.0319 7.87132 84.212 9.03755 85.0002 10.4601C85.8385 11.9731 86.2628 13.6806 86.2302 15.4101C86.272 17.1406 85.8471 18.8504 85.0002 20.3601C84.1864 21.7717 82.9951 22.9283 81.5602 23.7001C80.0832 24.4854 78.4328 24.8877 76.7602 24.8701C75.0982 24.9055 73.4563 24.5019 72.0002 23.7001V23.7001ZM79.4302 20.8901C80.3025 20.4014 81.0199 19.6771 81.5002 18.8001C82.0588 17.7595 82.3347 16.5906 82.3002 15.4101C82.352 14.2286 82.097 13.0538 81.5602 12.0001C81.1035 11.1316 80.41 10.4104 79.5602 9.92007C78.7239 9.46088 77.7841 9.22335 76.8302 9.23007C75.8857 9.22356 74.9557 9.46125 74.1301 9.92007C73.2736 10.4018 72.5779 11.1253 72.1301 12.0001C71.6128 13.0461 71.362 14.2037 71.4002 15.3701C71.277 17.0517 71.8192 18.7144 72.9102 20.0001C73.3925 20.5234 73.981 20.9378 74.6363 21.2154C75.2916 21.4931 75.9987 21.6276 76.7102 21.6101C77.6727 21.6044 78.6184 21.3568 79.4602 20.8901H79.4302Z" fill="white"/>
<path d="M97.8002 15.31L103.71 24.58H99.4302L95.4302 18.36L91.7102 24.58H87.7102L93.6202 15.58L87.7102 6.28003H91.9902L95.9902 12.49L99.7102 6.28003H103.66L97.8002 15.31Z" fill="white"/>
<path d="M107.43 3.51H84.02L88.54 0H110.94L107.43 3.51Z" fill="white"/>
<path d="M110.94 22.4V0L107.43 3.51V26.92L110.94 22.4Z" fill="white"/>
</g>
<defs>
<clipPath id="clip0_404_2">
<rect width="110.94" height="33.18" fill="white"/>
</clipPath>
</defs>
</svg>
